<?xml version="1.0" encoding="UTF-8"?>
<svg id="Calque_1" xmlns="http://www.w3.org/2000/svg" version="1.1" viewBox="0 0 473.8 66.3">
  <!-- Generator: Adobe Illustrator 29.6.1, SVG Export Plug-In . SVG Version: 2.1.1 Build 9)  -->
  <path d="M87.1,55.5c-1.3,2.8-3.6,5.8-5.2,7.3-1.6,1.5-5,3.9-8.8,3.1-4.5-.9-5.8-5.7-5.8-11.2s0-1.8,0-2.9c.5-6.6,4.7-22.1,5.7-26.7.5-2.2,1-4.4,1-6.2s-.7-3.5-2.7-3.6c-2.9-.1-7.9,6.5-10.8,11.3-1.2,2-2.7,5.2-4,8.5-.6,4.3-1.3,8.4-1.8,10.8-1,5.8-2.7,16.5-2.9,17.7-.2,1.2-1.1,1.7-1.8,1.7s-4.2.3-5,.3c-.8-.2-2.3-.4-1.6-2.4.6-2,3.4-15.2,5.4-25.1,1.3-6.7,3.2-15.5,3.2-20.9s-.4-4.5-1.6-5c-3.2-1.3-7.6,4.3-10.3,9.3-1.9,3.5-4.4,9.6-6.2,14.4-2.3,11.4-5.1,25.5-5.4,26.6-.3,1.6-1.1,2.5-2.2,2.6-1,0-5,0-6,0s-1.8-.5-.8-3.3,5.2-18.9,7.5-30.3c1.2-5.8,2.5-12.3,2.5-17.7s-1.2-9.1-4.8-10.3c-1-.3-2.2-.5-3.3-.5-5.9,0-12.5,4.5-14.6,11-.7,2.2-1,4-1,5.6,0,4.1,2,6.3,4.7,7,3.7.9,6.9-1.6,7.8-2.7.4-.4.8-.6,1.1-.6.5,0,.9.6,1,1.8.3,2.3-2.2,9.4-9.5,9.4-6.7.1-11-5.4-11-12.3s1.4-8.5,4.6-12.8C9.3,3.4,17.1,0,24,0s5,.5,7.1,1.4c5,2.4,6.3,7.3,6.3,12.5s-.5,6-.9,8.6c0,.5-.2,1.1-.3,1.8,1-1.8,2-3.8,2.9-5.4,3.4-5.6,8.5-10.8,13.4-9.7,5,1.2,6,6,5.8,11.2,0,1.6-.3,4.1-.7,6.9.8-1.5,1.7-2.9,2.4-4,2.6-3.9,7.2-11.6,14.1-10.1,6.6,1.4,6.7,9.2,6.6,12.2-.3,7.6-4.1,19.8-5.6,25.5-.8,2.9-1.7,6.7-1.7,9.3s.3,2.9,1.3,3.2c2.5.8,4.8-1.4,6.8-3.6,1.8-1.9,3.3-4.9,3.9-5.8.3-.5,1.3-.8,1.7-.5.3.2.6.8,0,2Z"/>
  <path d="M115.7,63.1c-1.4,1.4-3.8,3.3-7.2,2.8-2.9-.4-4.7-2.9-5.2-6.6-3,4.8-8.5,7.6-13.1,6.6-3.4-.8-7.1-4.3-7.1-9.9s.5-4.7,1.8-7.4c3.5-7.3,10-10.2,14.5-10.2s2.7.3,3.6.8c1.7,1,2.6,2.3,3.2,3.3.6-1.3,1.1-2.2,1.4-2.7,1.2-1.3,2.2-1.3,3.1-1.3,1,0,2.4.4,2.2,1.3-.5,2.3-2,7.1-2.9,11.4-.5,2.6-1.1,6.2-1.1,8.7s.3,2.9.9,3.2c1.7.8,4.4-1.5,6-3.5,1.4-1.8,2.3-3.3,2.9-4.5s2.4-.7,1.6,1.2c-.9,1.8-2.9,5.1-4.6,6.8ZM101.2,40.9c-5.4-1.5-8.6,6.2-9.8,11.1-.7,2.5-1.3,5.2-1.3,7.4s.6,3.8,2.1,4.2c3.4,1,6.8-2.4,9-5.8.9-1.4,1.6-2.8,2.1-3.9.3-2.4.8-5,1.5-7.3,0-2.2-.8-4.9-3.6-5.7Z"/>
  <path d="M131.8,62.8c-1.4,1.3-4.3,3.3-7.7,2.9-3.1-.5-5.5-4.2-5.5-9.7s.2-2.9.5-4.5c1.3-5.8,2.6-10.7,3.7-11.8,1.1-1.3,1.9-1.3,2.9-1.3,1,0,2.1.5,2.4,1.3.7,1.4-1.3,7.3-2.1,11.6-.5,2.8-1.3,6.4-1.3,8.8s.3,2.4.8,2.7c1.7.8,4.5-1,6.1-2.9,1.6-1.8,2.7-3.7,3.3-5,.3-.7.8-.8,1.3-.6.3.2.6.8.3,1.7-.8,2.1-2.9,5.2-4.7,6.8ZM126.8,29.5c-2-.5-3.2-2.7-2.6-5,.5-2.3,2.6-3.7,4.5-3.2,2,.4,3.2,2.7,2.7,5-.6,2.3-2.6,3.7-4.6,3.2Z"/>
  <path d="M154.4,63.8c-2.4,1.1-6.3,2.4-9.4,1.8-.7,0-1.3.2-2.1.2-7.3-.3-10.9-8.3-9.4-12.3.4-1,1.1-1.8,1.8-2,1.2-1.4,2.4-3.2,3.6-4.9,1.8-2.5,3.4-5.7,3.5-6.6.3-.8-.5-1.8-.1-3.3s1.7-2.6,3.1-2.2c1.4.3,1.8,1.4,1.7,2.4-.2.9-1.2,2.2-1.5,2.6-.3.3-.4.8,0,1.2.4.5,1.8,2.5,3.4,4.2,1.6,1.7,4.9,4.6,5.4,9.2.3,2.5-1.2,6-3.7,8.4,1-.2,2.2-.5,3.3-1.2,2.9-1.6,5-4.1,5.8-5.4.7-1.3,2.5-.8,1.6,1-1,2.1-4.4,5.7-7,6.9ZM144.1,43.1c-.4-.3-.8,0-1.2.7-1.3,2.6-3.4,5.8-4.8,7.4-.3.3-.4.7.2.7,1.2,0,2.4,1.7,2,3.7-.3,1.8-2.1,3.4-2.4,3.9-.4.4-.4.8,0,1.3.3.5,1.2,1.8,3,2.1,3.2.5,5.4-2.8,6-4.5.4-1,.8-2.9.8-4.8s-.2-2.7-.5-3.9c-1-3.2-2.7-6.1-3.1-6.6Z"/>
  <path d="M188.8,63.8c-2.4,1.2-5.5,1.8-8.2,1.8s-2.9-.2-4-.5c-.9.5-3.1.8-4,.8-8.5.3-13.1-5.5-13.1-11.5.1-9.2,8.2-16,16.2-16.2,9.1-.2,12.3,5.9,12.2,11.3-.1,4.8-3.1,10.1-7.5,13.4,2.4.6,5.5.3,7.9-1.3,3.2-1.8,5-4.8,5.7-6.2.3-.7,1.2-.9,1.7-.8.5.3.8.8.3,1.8-1.1,2-3.4,5.4-7.2,7.4ZM181.4,49.1c0-5.8-2.7-8.4-6-8.6-3.8,0-7.7,3.2-8.7,11.5-.2,1.3-.3,2.5-.3,3.6,0,5.8,2,8.1,5.4,8.1s8-3,9.2-11.3c.4-1.2.4-2.3.4-3.3Z"/>
  <path d="M223.8,62.7c-1.7,1.6-4.6,3.9-7.6,3.2-3.5-.8-5.8-4.5-5-8.6s2.7-11.3,2.9-12.4c.3-1.2.8-3.1-.6-3.5-1.3-.4-5.5,2.6-8.7,8.1-3.1,5.5-6,13.4-6.3,14.6-.3,1.1-1.8,1.3-3.2,1.3s-3.3.3-3.2-1.3c.2-1.5.4-7.7,1.3-13.4.8-5.5,2.1-10.3,2.9-11.2.8-.8,2-.6,3.1-.6,1.1,0,2.7.6,2.4,1.8s-2.7,11.8-2.9,12.9c-.2.7.1,1.1.3,1.1.3,0,.7-.2.9-.7.7-1.1,2.4-5.1,5-8.8,2.5-3.6,6.1-7.6,10-6.6,3.6,1,4.6,4.6,4.6,6.7s-1.8,10.6-2.2,13.3c-.2,1.1-.8,4.4.3,4.7,1.4.3,3.4-1.1,5.2-3.1,1.7-1.9,2.9-3.7,3.6-5.3.3-.8,1.1-.9,1.5-.6.3.3.5.8.2,1.7-.7,2.1-2.9,5.2-4.5,6.7Z"/>
  <path d="M329.3,55.5c-1.3,2.8-3.6,5.8-5.2,7.3-1.6,1.5-5,3.9-8.8,3.1-4.5-.9-5.8-5.7-5.8-11.2s0-1.8.1-2.9c.5-6.6,4.7-22.1,5.7-26.7.5-2.2,1-4.4,1-6.2s-.7-3.5-2.7-3.6c-2.9-.1-7.9,6.5-10.8,11.3-1.2,2-2.7,5.2-4,8.5-.6,4.3-1.3,8.4-1.8,10.8-1,5.8-2.7,16.5-2.9,17.7-.2,1.2-1.1,1.7-1.8,1.7s-4.2.3-5,.3c-.8-.2-2.3-.4-1.6-2.4.6-2,3.4-15.2,5.4-25.1,1.3-6.7,3.2-15.5,3.2-20.9s-.4-4.5-1.6-5c-3.2-1.3-7.6,4.3-10.3,9.3-1.9,3.5-4.4,9.6-6.2,14.4-2.3,11.4-5.1,25.5-5.4,26.6-.3,1.6-1.1,2.5-2.2,2.6-1,0-5,0-6,0s-1.8-.5-.8-3.3,5.2-18.9,7.5-30.3c1.2-5.8,2.5-12.3,2.5-17.7s-1.2-9.1-4.8-10.3c-1-.3-2.2-.5-3.3-.5-5.9,0-12.5,4.5-14.6,11-.7,2.2-1,4-1,5.6,0,4.1,2,6.3,4.7,7,3.7.9,6.9-1.6,7.8-2.7.4-.4.8-.6,1.1-.6.5,0,.9.6,1,1.8.3,2.3-2.2,9.4-9.5,9.4-6.6,0-10.8-5.4-10.8-12.3s1.4-8.5,4.6-12.8C251.7,3.4,259.5,0,266.4,0s5,.5,7.1,1.4c5,2.4,6.3,7.3,6.3,12.5s-.5,6-.9,8.6c-.1.5-.2,1.1-.3,1.8,1-1.8,2-3.8,2.9-5.4,3.4-5.6,8.5-10.8,13.4-9.7,5,1.2,6,6,5.8,11.2-.1,1.6-.3,4.1-.7,6.9.8-1.5,1.7-2.9,2.4-4,2.6-3.9,7.2-11.6,14.1-10.1,6.6,1.4,6.7,9.2,6.6,12.2-.3,7.6-4.1,19.8-5.6,25.5-.8,2.9-1.7,6.7-1.7,9.3s.3,2.9,1.3,3.2c2.5.8,4.8-1.4,6.8-3.6,1.8-1.9,3.3-4.9,3.9-5.8.3-.5,1.3-.8,1.7-.5,0,.2.4.8-.2,2Z"/>
  <path d="M339.6,62.8c-1.4,1.3-4.3,3.3-7.7,2.9-3.1-.5-5.5-4.2-5.5-9.7s.2-2.9.5-4.5c1.3-5.8,2.6-10.7,3.7-11.8,1.1-1.3,1.9-1.3,2.9-1.3,1,0,2.1.5,2.4,1.3.7,1.4-1.3,7.3-2.1,11.6-.5,2.8-1.3,6.4-1.3,8.8s.3,2.4.8,2.7c1.7.8,4.5-1,6.1-2.9,1.6-1.8,2.7-3.7,3.3-5,.3-.7.8-.8,1.3-.6.3.2.6.8.3,1.7-.8,2.1-2.8,5.2-4.7,6.8ZM334.6,29.5c-2-.5-3.2-2.7-2.6-5,.5-2.3,2.6-3.7,4.5-3.2,2,.4,3.2,2.7,2.7,5-.6,2.3-2.6,3.7-4.6,3.2Z"/>
  <path d="M358.1,62.6c-2.4,2.1-5.8,3.9-9.6,3.2-3.9-.8-6-6.5-6-14.8s.6-9.7,1.8-15.4c3.3-15.9,8.4-30.4,14.9-29.6,2.9.4,3.8,3.7,3.8,7.7s-1.5,11.3-2.4,14.2c-1.3,4.5-6.8,15.5-11.1,20.5-.1,1.8-.2,3.5-.2,5.1,0,5.1.6,8.7,1.8,9.2,2.7.8,5.1-1.3,6.7-3s3.2-4.1,3.9-5.5c.3-.6.7-.7,1-.5.3.3.6,1.2.2,2.1-.6,1.6-2.4,4.7-4.8,6.8ZM350.9,34.9c-.4,2.9-.8,6-1.1,8.9,2.6-3.1,5.9-8.7,8.6-16.6,1.7-5,2.5-10,2.5-13.5s-.6-5-1.8-5.4c-2.7-.8-6.4,14.1-8.2,26.6Z"/>
  <path d="M375.7,62.6c-2.4,2.1-5.8,3.9-9.6,3.2-3.9-.8-6-6.5-6-14.8s.6-9.7,1.8-15.4c3.3-15.9,8.4-30.4,14.9-29.6,2.9.4,3.8,3.7,3.8,7.7s-1.5,11.3-2.4,14.2c-1.3,4.5-6.8,15.5-11.1,20.5-.1,1.8-.2,3.5-.2,5.1,0,5.1.6,8.7,1.8,9.2,2.7.8,5.1-1.3,6.7-3s3.2-4.1,3.9-5.5c.3-.6.7-.7,1-.5.3.3.6,1.2.2,2.1-.6,1.6-2.3,4.7-4.8,6.8ZM368.6,34.9c-.4,2.9-.8,6-1.1,8.9,2.6-3.1,5.9-8.7,8.6-16.6,1.7-5,2.5-10,2.5-13.5s-.6-5-1.8-5.4c-2.8-.8-6.5,14.1-8.2,26.6Z"/>
  <path d="M409.1,63.1c-1.4,1.4-3.8,3.3-7.2,2.8-2.9-.4-4.7-2.9-5.2-6.6-3,4.8-8.5,7.6-13.1,6.6-3.4-.8-7.1-4.3-7.1-9.9s.5-4.7,1.8-7.4c3.5-7.3,10-10.2,14.5-10.2s2.7.3,3.6.8c1.7,1,2.6,2.3,3.2,3.3.6-1.3,1.1-2.2,1.4-2.7,1.2-1.3,2.2-1.3,3.1-1.3,1,0,2.4.4,2.2,1.3-.5,2.3-2,7.1-2.9,11.4-.5,2.6-1.1,6.2-1.1,8.7s.3,2.9.9,3.2c1.7.8,4.4-1.5,6-3.5,1.4-1.8,2.3-3.3,2.9-4.5s2.4-.7,1.6,1.2c-.8,1.8-2.9,5.1-4.6,6.8ZM394.6,40.9c-5.4-1.5-8.6,6.2-9.8,11.1-.7,2.5-1.3,5.2-1.3,7.4s.6,3.8,2.1,4.2c3.4,1,6.8-2.4,9-5.8.9-1.4,1.6-2.8,2.1-3.9.3-2.4.8-5,1.5-7.3,0-2.2-.8-4.9-3.6-5.7Z"/>
  <path d="M441,50.7c-1.1,1.4-2.9,2.8-4.5,3.3-1,.3-1.9.4-2.8.4-1.4,0-2.6-.3-3.6-.8-2.2-1.3-3.5-3.9-3.3-7.1.1-1.4-.3-1.1-.8-.4-.5.7-2.5,3.2-4.5,7.2-2,4.1-3.9,10.4-4.1,11.3-.3.8-1.2,1.1-3.1,1.1-1.8,0-3.4-.2-3.3-1.2s.6-7.4,1.4-12.3c.8-5.5,2.6-11.8,2.9-12.3.4-.5,1.5-.8,3.1-.8,1.5,0,2.6.8,2.4,1.8-.3.9-.7,4.2-1.1,6.2-.4,2.1-.6,4.5-.7,5.1,0,.4.2.5.3.3.2-.2.3-.4.5-.8.5-.9,2.7-4.7,4.5-7.4,1.8-2.8,3.3-4.4,3.8-4.8.7-.4,4-1.6,5.3-.7,1.6,1.2.3,3.9-.3,5.7-.7,1.8-2.4,5.4-1.3,6.9.7.9,2.4,1.2,4.2.8,1.5-.4,3.1-1.6,4-2.8.4-.5,1.1-.3,1.3,0,.3,0,.1.6-.3,1.2Z"/>
  <path d="M469.9,62.4c-1.7,1.6-4.6,3.9-8.1,3.3-2.4-.5-4.2-2.8-4.7-6.2-3.3,4.5-8.1,7.1-12.2,6.8-4-.2-8.7-3.8-8.7-10.3s.2-2.4.5-3.9c2.5-10.1,11.8-14.8,17.1-13.8,2.4.5,4.2,1.9,5.3,3.4,1.1-5.7,3.1-16.2,4.5-23.8.2-.8.3-1.2,1.1-1.5.7-.3,1.7-.4,2.5-.5.7-.1,1.7-.1,2.4.2,1.2.3.8,1.2.7,2.2-.6,3.4-2.4,11.9-4.5,22.5-1.7,9.2-3,16.2-3,19.9s.3,2.5.8,2.8c1.7.7,3.7-1.3,5.1-2.8,1.2-1.2,2.9-3.9,3.4-5,.4-1,2.1-.6,1.4.9-.5,1.5-1.9,4.1-3.6,5.8ZM454,40.7c-4.5-.8-7.7,4.5-9.6,11.6-.6,2.3-.8,4.3-.8,5.9,0,3.5,1.2,5.5,2.8,5.8,2.4.4,5.5-1.4,8.4-4.8,1.2-1.3,2-3,2.6-4.6.4-2.4.8-5.2,1.2-8.1-.5-2.4-1.4-5.3-4.6-5.8Z"/>
</svg>