<svg height="512" width="536" xmlns="http://www.w3.org/2000/svg"><g transform="scale(1.047 1)"><path d="m20.6166 422.568c-28.65066-62.804-.5742-140.809 51.101-182.766 30.0244-24.379 59.9554-31.96 97.0664-33.961.063-.284-.973-1.784-1.148-2.168l-5.201-10.102c-5.29-10.63-10.475-22.208-12.615-33.93-1.215-6.655-.025-16.507 9.356-13.558 28.95 9.101 74.209 46.996 90.923 70.874l-11.487-37.823-11.369-49.68-3.573-22.214c-.728-4.004-1.388-11.8516.72-15.3497 6.857-11.3774 22.331 6.1316 27.146 11.4207 24.968 27.42 33.971 65.272 40.78 100.726 1.62-4.643 1.746-9.935 2.36-14.803l2.745-17.327 7.415-32.094c5.839-22.255 13.347-45.2515 26.163-64.563 33.668-50.7322 93.788-70.50412 152.329-71.44416l9.021-.02411c11.456-.00651 14.116.05922 13.518 12.23587-.323 6.5976-1.306 13.0723-2.228 19.6074-5.252 37.2461-14.372 75.781-37.115 106.57-26.023 35.23-64.939 59.964-108.401 66.539 37.662 9.835 68.632 43.134 83.553 78.258 23.581 55.508 16.09 124.095-21.648 171.741-47.722 60.251-130.212 69.451-180.082 5.048-5.18-6.688-9.212-13.807-13.695-20.921-31.495 28.813-81.473 43.423-123.231 37.875-38.0371-5.054-65.3882-24.575-82.4034-58.167zm146.8834-255.806c.706 2.629 2.299 5.384 3.404 7.914l16.125 33.217c21.44 4.883 39.932 13.677 55.642 29.468l4.651 4.989c.776.865 1.986 3.042 3.335 2.811.105-4.361-20.837-28.667-24.048-32.036-15.441-16.201-32.445-30.127-51.561-41.754l-4.649-2.846c-.917-.592-1.867-1.403-2.899-1.763l-.201-.215zm314.437-147.1933-25.666 2.3317c-81.895 10.1047-119.09 50.6204-137.773 126.8496l-7.898 33.53 87.344-92.4375c4.478-4.6203 8.958-9.6149 13.829-13.8179 8.674-7.4843 17.807-.1061 13.567 7.8704-1.308 2.4612-3.952 4.5088-5.938 6.4209l-6.064 6.205-99.585 104.8371c-2.077 2.167-4.977 4.437-6.652 6.848 7.269-2.588 13.819-6.376 21.291-8.595 6.932-2.058 14.145-3.239 21.233-4.619 31.927-6.217 56.782-14.929 80.982-36.635 42.489-38.111 53.254-83.7436 59.076-138.8882zm-241.325 93.8673c3.664 23.134 8.846 45.587 14.951 68.182l8.164 30.49c1.456 5.706 3.206 11.657 3.824 17.512 2.181-2.3 4.501-4.207 7.118-5.989l5.834-3.466c-2.994-8.665-4.169-18.159-6.227-27.102-6.508-28.293-15.486-56.533-33.664-79.627zm88.596 107.922c-58.919 3.477-99.239 61.878-106.376 116.135-.972 7.386-1.081 14.646-1.074 22.077l.217 14.067c3.684 58.799 45.621 122.246 110.369 118.978l.139-.01c54.73-3.189 93.311-56.297 103.811-106.614l2.579-15.928c.932-5.495.711-11.35.711-16.906-.004-51.418-26.699-106.96-76.709-126.386-10.298-4.001-22.54-6.213-33.667-5.413zm-169.46.182c-21.741 1.54-42.921 7.738-61.6901 18.91-45.9682 27.365-76.614 82.904-73.2347 136.425 6.1965 98.139 115.3368 112.518 184.7328 59.734 3.393-2.58 6.951-5.245 10.033-8.184l-5.819-15.925c-4.208-13.257-6.735-27.161-7.718-41.029l-4.587 5.654c-30.612 38.015-79.758 66.156-129.5656 55.125-4.7718-1.057-16.7114-4.277-17.1508-10.625-.5464-7.896 6.0001-9.154 12.0579-7.085l6.425 2.014c35.0195 9.407 74.2105-7.321 99.5935-31.242 12.97-12.223 26.291-27.271 33.032-44.09 1.169-2.916 1.511-5.987 2.134-9.041l2.779-12.694c5.187-21.877 14.082-45.024 28.89-62.374-10.442-11.341-17.993-18.757-31.923-25.646-10.828-5.355-22.501-9.381-34.652-9.923z"/><path d="m265.264 341.547c-10.52 1.358-9.68-8.329-8.022-15.047 7.818-31.681 27.673-59.587 56.711-75.211 3.734-2.009 7.462-3.979 11.6-5.005 3.558-.373 7.946.938 8.681 5.016l.051.325c1.136 6.851-3.606 8.9-8.785 11.365l-6.875 3.577c-22.937 13.357-41.474 38.402-46.355 64.704-.946 5.101-1.424 8.681-7.006 10.276z"/><path d="m51.6052 397.378c-10.2059-.482-10.1417-18.873-10.1485-26.35-.0533-58.635 52.0498-108.503 106.9193-120.224 8.583-.614 10.623 10.382 3.601 14.781-2.391 1.498-6.017 1.731-8.752 2.448-40.939 10.732-81.07 50.711-85.8331 93.696-.5599 5.053-.6088 11.2.1106 16.247 1.0201 7.155 4.7669 17.837-5.8973 19.402z"/><path d="m300.575 474.085-1.825-.805c-8.916-4.228-7.187-15.173 2.375-15.242 3.479-.026 6.87 1.903 10.15 2.876 43.634 12.95 82.367-34.027 93.096-71.617l1.795-7.006c1.234-5.007 2.661-8.119 8.101-9.516 3.353-.199 6.74 1.631 7.506 5.131l.066.332c1.108 5.215-2.168 14.908-3.812 19.928-16.021 48.916-63.084 94.003-117.452 75.919z"/></g></svg>